<?xml version="1.0" encoding="UTF-8" standalone="no"?>
<svg
   xmlns:dc="http://purl.org/dc/elements/1.1/"
   xmlns:cc="http://creativecommons.org/ns#"
   xmlns:rdf="http://www.w3.org/1999/02/22-rdf-syntax-ns#"
   xmlns:svg="http://www.w3.org/2000/svg"
   xmlns="http://www.w3.org/2000/svg"
   viewBox="0 0 834.66669 834.66669"
   height="834.66669"
   width="834.66669"
   id="svg2"
   version="1.1">
  <metadata
     id="metadata8">
    <rdf:RDF>
      <cc:Work
         rdf:about="">
        <dc:format>image/svg+xml</dc:format>
        <dc:type
           rdf:resource="http://purl.org/dc/dcmitype/StillImage" />
        <dc:title></dc:title>
      </cc:Work>
    </rdf:RDF>
  </metadata>
  <defs
     id="defs6" />
  <path
     id="path878"
     d="m -2.945715,825.4914 c 1.05466,-2.56652 24.66846,-71.78665 42.03926,-123.23148 5.07614,-15.03333 14.06093,-41.426 19.96621,-58.65037 5.90527,-17.22438 10.73686,-32.28829 10.73686,-33.47534 0,-1.18707 -2.89036,-7.1944 -6.42302,-13.34963 -11.91371,-20.75818 -22.88929,-46.0451 -31.76809,-73.19133 -38.01502,-116.22792 -19.78334,-248.07322 48.10107,-347.85061 13.20338,-19.40653 12.54238,-18.495 20.895075,-28.81607 58.1326,-71.831972 137.024,-121.706183 225.6346,-142.6435447 91.8031,-21.6917133 190.2463,-11.014815 274.227,29.7419767 93.3761,45.316401 167.2439,125.249958 203.5226,220.234908 22.1743,58.05675 31.4731,125.68417 25.1118,182.63031 -4.9334,44.16261 -10.7282,68.74562 -25.9263,109.98424 -4.0473,10.9819 -19.0051,42.10498 -25.6571,53.38546 -4.6437,7.87462 -17.7637,28.09357 -25.051,38.60537 -1.1,1.58674 -4.3852,5.84966 -7.3005,9.47314 -41.3931,51.44829 -88.0299,89.1005 -143.3661,115.7466 -51.1943,24.65161 -97.8065,36.94144 -155.5001,40.99928 -46.6412,3.28048 -103.6667,-3.84741 -150.4999,-18.81171 -22.3378,-7.13742 -32.0785,-11.0983 -56.2499,-22.873 l -16.2499,-7.91585 -42.4168,13.47728 c -23.3292,7.41249 -45.1168,14.29284 -48.4168,15.28967 -4.7627,1.43866 -114.523255,36.30005 -127.999965,40.65446 -1.83334,0.59238 -4.48750001,1.54368 -5.89815,2.11404 -2.1568,0.87204 -2.39715,0.629 -1.51085,-1.5278 z M 456.46325,739.52079 c 36.4837,-3.32326 80.1298,-15.49519 111.6676,-31.14164 6.7838,-3.36558 12.6707,-6.11923 13.082,-6.11923 0.4113,0 7.4609,-4.02465 15.6658,-8.94369 85.6097,-51.3251 144.2601,-133.87545 162.74,-229.05632 8.749,-45.06145 8.0951,-92.54817 -1.9179,-139.28135 -4.1103,-19.18378 -15.1112,-50.7249 -24.4328,-70.05199 -8.4341,-17.48684 -24.7912,-45.38406 -31.6621,-54 -2.0469,-2.56666 -7.4913,-9.4564 -12.0987,-15.31053 -12.3737,-15.72171 -38.3059,-41.21024 -55.3538,-54.40667 -42.3008,-32.74419 -91.4451,-55.652356 -141.8867,-66.139189 -25.4957,-5.300574 -41.7046,-6.818504 -72.278,-6.768689 -36.5202,0.05951 -65.9515,4.234187 -98.1213,13.917984 -46.3785,13.960957 -94.6348,40.912084 -128.5766,71.810044 -5.7783,5.26005 -11.1783,9.95971 -12,10.44369 -2.9518,1.73848 -28.7646,31.36098 -37.362,42.87623 -29.8953,40.04149 -51.861195,89.59138 -60.693495,136.91047 -5.05668,27.09144 -5.82237,35.57395 -5.777,64 0.0724,45.36908 5.8369,78.56871 20.7865,119.71582 8.050895,22.15901 22.407595,49.93887 37.149695,71.88357 l 6.7811,10.09432 -11.4565,34.15315 c -6.3011,18.78423 -15.8931,47.20315 -21.3155,63.15315 -5.4224,15.95 -9.403595,29 -8.8472,29 1.1618,0 52.8934,-16.11524 63.9069,-19.90805 4.0334,-1.38899 15.4334,-5.04816 25.3334,-8.13148 9.9,-3.08331 23.3499,-7.33452 29.8887,-9.44714 l 11.8887,-3.8411 12.4233,7.4132 c 40.8984,24.40498 94.6469,42.48145 139.7993,47.01672 17.0836,1.71594 54.6696,1.79804 72.6666,0.15872 z m 66.6667,-149.2755 c -23.6568,-2.87388 -81.9395,-22.68969 -112.6667,-38.30609 -18.9892,-9.65086 -27.8517,-15.52102 -57.856,-38.32174 -17.2717,-13.12505 -49.9369,-47.54523 -70.2498,-74.02421 -8.0709,-10.52079 -28.2703,-38.89298 -32.2748,-45.33334 -6.4576,-10.38569 -18.8824,-37.35949 -22.1526,-48.09241 -13.5974,-44.62838 -2.8954,-89.0191 28.7776,-119.36649 10.5658,-10.12352 17.9772,-12.72797 35.4985,-12.47464 7.8414,0.11334 16.4397,0.74978 19.1073,1.41422 5.8561,1.45862 10.7651,7.43461 15.2819,18.60352 8.0791,19.97718 9.5489,23.54325 11.5059,27.9158 1.1488,2.56667 4.1974,9.76667 6.7746,16 2.5773,6.23333 6.61,15.83333 8.9615,21.33333 8.1211,18.99448 6.1061,24.54402 -19.8059,54.54691 -8.2738,9.58005 -8.515,10.06823 -7.9386,16.06725 1.4228,14.80678 37.8022,60.30735 67.7038,84.67853 22.6761,18.48213 66.1254,41.97264 79.7605,43.12186 l 7.0938,0.5979 7.2994,-7.83955 c 4.0147,-4.31176 13.0871,-15.26805 20.1608,-24.34732 9.1285,-11.71653 14.1948,-17.06488 17.4554,-18.42728 6.4962,-2.71427 9.2508,-1.75745 49.5634,17.21597 28.5772,13.4501 49.3301,24.1723 51.5622,26.64023 5.1264,5.66787 1.7279,34.54314 -5.997,50.95343 -9.1072,19.34659 -37.6848,38.78191 -65.646,44.645 -17.2237,3.61159 -21.8742,4.01941 -31.9192,2.79912 z"
     style="fill:#ffffff;stroke-width:1.33333337" />
</svg>
